# xmcd
#
# Track frame offsets:
#	150
#	10733
#	25786
#	34644
#	43787
#	52930
#	63783
#	75108
#	85353
#	96176
#	105581
#	114604
#	124392
#	139422
#	148190
#	158158
#	168186
#	179226
#	190071
#	201216
#
# Disc length: 2808 seconds
#
# Revision: 1
# Processed by: cddbd v1.5.2PL0 Copyright (c) Steve Scherf et al.
# Submitted via: audiograbber 1.83.01
#
DISCID=0c0af614
DTITLE=Flatt and Scruggs - 20 All-Time Greatest Recordings
DYEAR=1970
DGENRE=Country
TTITLE0=I Still Miss Someone
TTITLE1=99 Years Is Almost For Life
TTITLE2=When Papa Played The Dobro
TTITLE3=John Henry
TTITLE4=Cripple Creak
TTITLE5=Petticoat Junction
TTITLE6=Jackson
TTITLE7=Foggy Mountain Breakdown
TTITLE8=Kansas City
TTITLE9=Sally Ann
TTITLE10=The Ballad Of Jed Clampett
TTITLE11=Detorit City
TTITLE12=The Soldier's Return
TTITLE13=Lonesome Road Blues
TTITLE14=Dig A Hole In The Meadow
TTITLE15=You're Gonna Miss Me When I'm Gone
TTITLE16=Coal Miner's Blues
TTITLE17=Wabash Cannonball
TTITLE18=Memphis
TTITLE19=Salty Dog Blues
EXTD=
EXTT0=
EXTT1=
EXTT2=
EXTT3=
EXTT4=
EXTT5=
EXTT6=
EXTT7=
EXTT8=
EXTT9=
EXTT10=
EXTT11=
EXTT12=
EXTT13=
EXTT14=
EXTT15=
EXTT16=
EXTT17=
EXTT18=
EXTT19=
PLAYORDER=
